<svg xmlns="http://www.w3.org/2000/svg" viewBox="0 0 165 165"><path fill="#fbfcfb" stroke="#fbfcfb" d="M0 82.506v82.506l82.75-.256 82.75-.256.256-82.25.256-82.25H0v82.506M.477 83c0 45.375.123 63.938.273 41.25.15-22.687.15-59.812 0-82.5C.6 19.063.477 37.625.477 83m35.094-53.429c-2.305 2.306-2.027 8.706.478 10.973 1.471 1.331 1.964 2.833 1.75 5.328C37.41 50.39 35 51.361 35 47c0-2.089-.425-3.025-1.25-2.75-2.243.748-1.582 8.202.757 8.538 5.482.785 8.766-8.739 4.558-13.218-2.251-2.397-2.729-9.652-.565-8.57.55.275.87 1.513.712 2.75-.396 3.094 2.421 2.949 3.015-.155.94-4.922-3.234-7.445-6.656-4.024m10.411-.821c-.01.413-.677 5.025-1.482 10.25-2.152 13.961-2.124 14.188 1.673 13.813C49.815 52.454 51.372 50 47.958 50c-1.94 0-2.132-.38-1.583-3.125.344-1.719.625-3.744.625-4.5 0-.756.675-1.375 1.5-1.375s1.5-.675 1.5-1.5-.45-1.5-1-1.5c-2.325 0-1.031-6.038 1.5-7 1.375-.523 2.5-1.412 2.5-1.975 0-1.161-6.99-1.435-7.018-.275m8.173 6.5c-2.399 15.541-2.549 18.048-1.051 17.558.816-.267 1.776-2.825 2.312-6.16 1.198-7.456 3.206-6.946 2.736.694-.229 3.741.035 5.658.782 5.658 1.563 0 1.984-1.505 2.514-9 .253-3.575.757-7.967 1.121-9.759.814-4.017-.808-6.241-4.554-6.241-2.632 0-2.785.286-3.86 7.25m10.655 4.679c-.249 9.688-.032 12.16 1.107 12.595 2.242.857 2.837-.383 5.538-11.53C74.383 28.907 74.469 28 72.68 28c-.875 0-1.758 2.701-2.621 8.016-2.301 14.165-3.762 8.576-1.689-6.457.072-.517-.631-1.107-1.56-1.311-1.501-.33-1.725.977-2 11.681M76.949 28.25c-1.622 7.996-3.367 23.992-2.664 24.426 1.18.73 2.668-1.543 2.735-4.176.028-1.1.639-6.163 1.358-11.25 1.092-7.724 1.086-9.25-.035-9.25-.739 0-1.366.113-1.394.25m6.32.949C82.093 30.642 80 42.924 80 48.383c0 4.009 1.117 5.056 4.49 4.209 2.4-.603 2.808-1.356 4.041-7.46.966-4.784-1.724-3.697-2.957 1.194-1.602 6.351-2.883 4.207-2.138-3.576.847-8.853 1.506-11.75 2.672-11.75.491 0 .892 1.575.892 3.5 0 2.499.445 3.5 1.555 3.5 1.231 0 1.491-.989 1.25-4.75-.323-5.025-3.923-7.256-6.536-4.051m10.271.051c-.831 2.617-3.276 22.285-2.859 23 .852 1.462 6.319.813 6.319-.75 0-.825-.675-1.5-1.5-1.5-.991 0-1.5-.991-1.5-2.918 0-3.927.924-6.082 2.607-6.082.766 0 1.393-.675 1.393-1.5s-.727-1.5-1.617-1.5c-1.188 0-1.457-.596-1.013-2.25.331-1.237.609-2.812.616-3.5C95.994 31.563 96.9 31 98 31c1.111 0 2-.667 2-1.5 0-1.865-5.875-2.092-6.46-.25m9.192.007c-.937 2.44-3.096 22.713-2.485 23.324 1.274 1.273 2.753-.807 2.767-3.89.018-4.324 1.001-7.691 2.245-7.691.657 0 .8 2.158.399 6-.733 7.009 1.711 9.022 2.731 2.25 1.988-13.196 2.782-20.413 2.299-20.895-1.135-1.135-2.688.851-2.702 3.454-.021 4.119-1.116 7.315-2.363 6.898-1.077-.36-1.075-5.249.003-8.957.589-2.024-2.129-2.487-2.894-.493m11.268-.25c0 .553-.684 5.559-1.52 11.124C110.881 50.782 111.309 53 114.967 53c3.306 0 4.775-3.325 6.077-13.754 1.212-9.707.954-12.792-.894-10.679-.449.513-1.384 5.208-2.078 10.433-1.173 8.833-2.266 12.139-3.578 10.827-.297-.296.146-5.101.983-10.676C117.316 26.909 117.314 28 115.5 28c-.825 0-1.5.453-1.5 1.007m11-.041c0 .531-.7 5.981-1.555 12.112-1.758 12.609-1.813 12.401 3.054 11.488 4.207-.789 5.606-3.436 5.544-10.49-.022-2.517.239-6.315.581-8.441.44-2.736.221-4.119-.751-4.735-1.864-1.18-6.873-1.133-6.873.066m-67.333 2.701c-.367.366-.653 2.279-.635 4.25.03 3.367.12 3.466 1.5 1.642 2.4-3.174 1.634-8.392-.865-5.892m69.94.915c-.899 2.341-.736 5.418.286 5.418 1.083 0 2.107-2.469 2.107-5.082 0-2.318-1.549-2.535-2.393-.336m-1.036 8.605c-1.477 4.673-1.582 8.813-.223 8.813 1.718 0 2.652-2.121 2.652-6.023 0-3.027-1.727-5.011-2.429-2.79M76 105.148c-3.025 1.722-9.71 5.596-14.855 8.611l-9.355 5.481 11.855 6.979c19.26 11.339 18.864 11.179 22.113 8.937 1.508-1.04 8.258-4.963 14.999-8.717 6.742-3.753 11.917-7.154 11.5-7.557-1.278-1.237-29.018-16.883-29.915-16.873-.463.006-3.317 1.418-6.342 3.139" fill-rule="evenodd"/><path fill="#a1d3ea" stroke="#a1d3ea" d="M0 82.506v82.506l82.75-.256 82.75-.256.256-82.25.256-82.25H0v82.506M.477 83c0 45.375.123 63.938.273 41.25.15-22.687.15-59.812 0-82.5C.6 19.063.477 37.625.477 83m34.596-53.588c-2.151 2.592-1.736 9.322.715 11.605 2.219 2.068 2.736 4.453 1.605 7.401-1.071 2.792-2.531 1.689-2.207-1.668.228-2.362-.096-3.25-1.186-3.25-2.823 0-2.027 8.925.832 9.33C40.446 53.625 44.04 41.697 39 39c-2.131-1.141-2.828-6.37-1-7.5.567-.351 1 .49 1 1.941 0 3.074 2.572 3.484 3.5.559 1.581-4.981-4.158-8.526-7.427-4.588m10.484-.162c-.21.688-.902 5.525-1.538 10.75-.637 5.225-1.381 10.288-1.656 11.25-.416 1.461.173 1.75 3.57 1.75 4.238 0 5.856-2.299 2.276-3.235-2.593-.678-1.842-8.366.887-9.08C51.348 40.096 51.663 38 49.5 38c-1.61 0-1.826-1.182-.87-4.75.355-1.323 1.379-2.25 2.487-2.25C52.152 31 53 30.325 53 29.5c0-1.881-6.877-2.112-7.443-.25m9.035.942C53.747 34.3 52 48.011 52 50.541c0 5.097 2.831 2.658 3.545-3.054.986-7.895 2.911-8.454 2.203-.64-.506 5.579-.381 6.153 1.347 6.153 1.501 0 1.945-.795 2.093-3.75.103-2.062.346-5.325.54-7.25.195-1.925.448-5.75.563-8.5l.209-5-3.716-.308c-3.197-.266-3.783.014-4.192 2m10.402 2.058c-.003 2.337-.295 7.962-.648 12.5L63.704 53h2.524c2.378 0 2.68-.626 5.19-10.75 1.466-5.913 2.902-11.538 3.191-12.5.378-1.258-.036-1.75-1.469-1.75-1.709 0-2.169 1.079-3.209 7.529-.668 4.14-1.619 7.778-2.113 8.083-.494.306-.684-.495-.421-1.778C69.172 33.145 69.028 28 67.009 28c-1.696 0-2.01.662-2.015 4.25m10.139 5.5c-.667 5.362-1.456 10.987-1.753 12.5-.436 2.227-.176 2.75 1.368 2.75 1.659 0 2.07-1.267 3.168-9.75.694-5.362 1.503-10.987 1.798-12.5.437-2.244.177-2.75-1.416-2.75-1.72 0-2.097 1.161-3.165 9.75m7.926-8.321c-1.905 2.296-4.335 20.534-2.956 22.195 1.499 1.807 5.334 1.759 6.864-.085 2.017-2.43 2.592-9.539.772-9.539C86.005 42 85 44.048 85 47.582c0 1.33-.508 2.418-1.129 2.418-1.1 0-.988-2.161.765-14.75.707-5.081 2.763-5.79 2.174-.75-.324 2.779-.061 3.5 1.28 3.5 1.866 0 3.406-5.544 2.323-8.366-.781-2.036-5.72-2.174-7.354-.205m9.021 7.821c-.663 5.087-1.452 10.712-1.754 12.5-.532 3.153-.444 3.25 2.956 3.25 2.192 0 3.72-.562 4.08-1.5.391-1.02-.054-1.5-1.393-1.5-1.379 0-1.965-.674-1.955-2.25.023-3.818 1.154-6.75 2.603-6.75.76 0 1.383-.675 1.383-1.5s-.45-1.5-1-1.5-1-1.575-1-3.5c0-2.767.396-3.5 1.893-3.5 1.041 0 2.152-.675 2.469-1.5.449-1.172-.261-1.5-3.251-1.5h-3.827l-1.204 9.25m9.053.5c-.667 5.362-1.456 10.987-1.753 12.5-.449 2.291-.192 2.75 1.541 2.75 1.522 0 2.079-.636 2.079-2.375 0-3.95 1.191-8.625 2.197-8.625.564 0 .669 2.222.26 5.5-.582 4.657-.443 5.5.909 5.5 1.863 0 2.153-1.092 3.926-14.75 1.237-9.537 1.21-10.25-.387-10.25-1.302 0-1.884 1.208-2.405 5-.378 2.75-1.153 5-1.723 5-.663 0-.797-1.793-.371-5 .59-4.447.457-5-1.199-5-1.605 0-2.028 1.343-3.074 9.75m12.481-7c-1.472 7.42-2.775 19.388-2.258 20.735.739 1.925 5.05 1.966 6.95.066.797-.797 1.969-5.184 2.606-9.75.636-4.566 1.402-9.538 1.702-11.051.446-2.253.189-2.75-1.422-2.75-1.748 0-2.105 1.143-3.202 10.25-1.296 10.752-1.639 12.085-2.902 11.304-.426-.263-.179-4.433.547-9.266.727-4.833 1.332-9.576 1.343-10.538.035-2.834-2.769-2-3.364 1m10.968.443c-3.403 21.244-3.38 21.807.895 21.807 5.229 0 6.456-2.643 6.765-14.563l.258-9.937-3.694-.307c-3.488-.29-3.723-.123-4.224 3m-66.934 1.991c-.871 3.25-.794 4.816.235 4.816 1.187 0 2.17-5.286 1.174-6.316-.434-.449-1.068.226-1.409 1.5m70.057.566c-.291 1.513-.319 2.962-.062 3.221.699.707 2.324-2.222 2.342-4.221.024-2.783-1.699-2.027-2.28 1m-1.038 7.917c-.991.991-.808 8.333.208 8.333.829 0 2.125-4.652 2.125-7.625 0-1.455-1.217-1.824-2.333-.708m-56.702 66.14c-6.344 3.681-13.27 7.728-15.391 8.993l-3.856 2.299 13.891 8.062c7.64 4.434 14.862 8.515 16.049 9.069 1.821.85 4.512-.353 17.25-7.71 8.3-4.794 15.08-9.01 15.066-9.368-.025-.619-30.245-18.215-31.078-18.095-.218.031-5.587 3.069-11.931 6.75" fill-rule="evenodd"/><path fill="#5bb3db" stroke="#5bb3db" d="M0 82.506v82.506l82.75-.256 82.75-.256.256-82.25.256-82.25H0v82.506M.477 83c0 45.375.123 63.938.273 41.25.15-22.687.15-59.812 0-82.5C.6 19.063.477 37.625.477 83m35.135-54.124c-3.104 3.43-3.249 8.848-.318 11.924 2.218 2.329 2.457 3.181 1.741 6.2-.891 3.756-1.359 3.207-1.066-1.25.297-4.498-3.541-3.775-4.285.808-.707 4.356-.111 6.097 2.301 6.728 6.387 1.67 10.48-9.103 5.452-14.351-2.309-2.411-2.522-3.145-1.626-5.605l1.031-2.83.079 3.323c.113 4.745 3.444 4.074 3.908-.787.509-5.344-3.864-7.865-7.217-4.16m47.573-.061c-2.979 2.979-5.081 22.056-2.628 23.851 3.491 2.552 7.291-.366 8.404-6.452.728-3.982.64-4.214-1.595-4.214-2.03 0-2.366.489-2.366 3.441 0 1.893-.52 3.762-1.156 4.155-.817.506-.986-.137-.577-2.191.319-1.598.899-5.728 1.288-9.177.39-3.45 1.148-6.545 1.686-6.877.617-.382.721.916.28 3.522-.798 4.728 2.636 6.402 3.849 1.877 2.077-7.75-2.412-12.708-7.185-7.935m43.229-.772c-1.721.636-2.203 2.31-3.337 11.593-.729 5.967-1.543 11.415-1.809 12.107-.701 1.828 7.207 1.639 9.063-.217 1.53-1.53 3.255-10.769 2.299-12.315-.299-.485-.043-2.512.569-4.506 1.607-5.239-1.742-8.528-6.785-6.662M45.517 29.25C45.156 30.324 42 51.215 42 52.53c0 .259 1.8.47 4 .47 4.079 0 5.673-2.144 2.5-3.362-2.407-.923-2.002-7.694.5-8.348 2.316-.606 2.643-2.827.587-3.99-2.108-1.193-.867-6.3 1.53-6.3C52.152 31 53 30.325 53 29.5c0-1.88-6.858-2.109-7.483-.25m7.617 9c-.693 5.638-1.506 11.263-1.806 12.5-.427 1.765-.114 2.25 1.457 2.25C55.106 53 56 51.186 56 46.477c0-1.847.51-3.674 1.133-4.059.823-.509.94.843.428 4.941C56.912 52.555 57.013 53 58.84 53c2.12 0 3.556-4.965 3.097-10.704-.123-1.538.026-3.471.331-4.296 2.545-6.884 1.266-10-4.106-10h-3.767l-1.261 10.25m11.508-4.103C63.216 47.798 63.718 53 66.461 53c2.671 0 2.325.836 6.482-15.667C75.44 27.421 75.435 28 73.019 28c-1.243 0-2.162.838-2.468 2.25-2.557 11.82-2.474 11.621-1.881 4.5.521-6.244.415-6.75-1.411-6.75-1.682 0-2.069.911-2.617 6.147m10.472 1.603C72.51 53.825 72.527 53 74.749 53c1.758 0 2.166-1.008 3.137-7.75C80.49 27.175 80.473 28 78.251 28c-1.758 0-2.166 1.008-3.137 7.75m17.868-7c-.01.413-.677 5.025-1.482 10.25-2.19 14.209-2.227 14 2.5 14 4.379 0 5.687-2.325 1.87-3.324-1.475-.385-1.936-1.062-1.5-2.198.347-.903.63-2.73.63-4.06 0-1.439.584-2.418 1.441-2.418 2.319 0 3.014-2.194 1.132-3.571-2.449-1.79-1.685-5.842 1.177-6.249 1.237-.175 2.25-.963 2.25-1.75 0-1.5-7.982-2.178-8.018-.68m8.132 7C98.503 53.873 98.519 53 100.792 53c1.752 0 2.168-.832 2.751-5.5.378-3.025 1.053-5.5 1.5-5.5.447 0 .557 2.475.245 5.5-.516 4.995-.387 5.5 1.399 5.5 1.739 0 2.108-1.132 3.18-9.75.667-5.362 1.456-10.987 1.753-12.5.441-2.249.181-2.75-1.424-2.75-2.078 0-3.159 2.462-3.182 7.25-.008 1.513-.479 2.75-1.048 2.75-.664 0-.797-1.795-.372-5 .606-4.564.488-5-1.35-5-1.749 0-2.161 1.019-3.13 7.75m10.871 3.883C110.617 51.504 111.155 54 115.08 54c3.539 0 7.92-13.826 7.92-24.993 0-3.146-3.866-.718-4.369 2.743-1.67 11.504-3.079 18.508-3.369 16.75-.182-1.1.287-6.163 1.042-11.25l1.372-9.25H115.5c-2.032 0-2.263.764-3.515 11.633M58.15 32.668c-.083 1.193-.441 2.993-.797 4-.498 1.409-.364 1.571.578.704.674-.621 1.033-2.421.797-4-.302-2.024-.473-2.231-.578-.704M128 33.941c0 1.682.173 3.059.383 3.059.849 0 1.288-5.085.483-5.583-.476-.294-.866.842-.866 2.524m-1.352 9.243c-.891 3.324-.788 5.816.239 5.816 1.153 0 2.128-6.253 1.14-7.316-.418-.449-1.038.226-1.379 1.5M51 101.285v18.37l15.405 8.838c8.472 4.862 15.716 8.841 16.098 8.843 1.065.006 31.499-17.683 31.48-18.296-.016-.51-12.769-7.869-28.412-16.393-3.889-2.119-11.121-6.201-16.071-9.072-4.95-2.87-11.138-6.443-13.75-7.939L51 82.916v18.369" fill-rule="evenodd"/><path fill="#1493cc" stroke="#1493cc" d="M0 82.506v82.506l82.75-.256 82.75-.256.256-82.25.256-82.25H0v82.506M.477 83c0 45.375.123 63.938.273 41.25.15-22.687.15-59.812 0-82.5C.6 19.063.477 37.625.477 83m34.119-53.834C32.237 32.535 32.48 39.651 35 41c1.505.805 1.96 1.991 1.84 4.785-.159 3.692-.163 3.695-.563.465-.499-4.022-3.895-4.619-4.841-.852-2.022 8.057 6.605 12.511 9.401 4.854l1.005-2.752.079 3.248.079 3.247 6.737-.247 6.737-.248.782-5.435c1.086-7.558 1.887-7.728 1.104-.234-.551 5.267-.41 6.169.962 6.169 2.392 0 3.518-2.897 4.058-10.435.725-10.134 1.878-9.402 1.473.935-.329 8.384-.216 9.018 1.647 9.256 3.379.432 4.144-.892 6.798-11.756 2.857-11.695 3.323-10.915 1.344 2.246C72.246 53.524 72.319 54 75.121 54c1.241 0 1.952-.995 2.324-3.25.295-1.788.961-5.95 1.479-9.25.92-5.855.929-5.812.391 1.755-.385 5.421-.177 8.206.689 9.25 2.765 3.332 7.673.857 9.034-4.554.848-3.371.864-3.347.665 1.049l-.203 4.5 6.75.147c5.561.121 6.75-.133 6.75-1.441 0-1.32.229-1.275 1.355.265 1.882 2.574 4.629 1.296 4.708-2.19l.064-2.781.986 2.472c2.791 6.994 9.384 4.874 10.874-3.496l.886-4.976-.187 6-.186 6 3.077.3c5.351.523 7.871-2.53 8.224-9.961.165-3.487.553-8.033.861-10.103.821-5.519-.633-6.68-8.208-6.551-4.932.084-6.46.469-6.793 1.712-.347 1.296-.451 1.254-.545-.217-.203-3.187-4.493-1.698-5.241 1.82l-.638 3-.119-3.135c-.116-3.074-.213-3.134-5.067-3.134-3.736 0-5.055.4-5.384 1.634-.377 1.416-.451 1.401-.551-.115-.09-1.352-1.015-1.75-4.071-1.75-3.791 0-3.98.155-4.582 3.75-.96 5.743-1.298 6.135-1.384 1.607-.148-7.751-8.809-7.215-10.404.643-.291 1.432-.437.792-.341-1.5l.166-4-7.759-.141c-4.267-.077-8.007.262-8.31.753-.323.521-1.256.524-2.242.006-.929-.487-5.133-.921-9.341-.962l-7.653-.076-1.155 8.71c-1.498 11.295-1.784 12.486-1.924 8.017-.082-2.597-.776-4.156-2.339-5.25L37.555 37h2.777c2.69 0 2.768-.15 2.473-4.75-.29-4.522-.456-4.765-3.459-5.056-2.364-.23-3.554.265-4.75 1.972M69.195 31.5c.02 1.65.244 2.204.498 1.231.254-.973.237-2.323-.037-3-.274-.677-.481.119-.461 1.769m37.057 1c.011 2.2.216 2.982.455 1.738.239-1.244.23-3.044-.02-4s-.446.062-.435 2.262m16.943-1c.02 1.65.244 2.204.498 1.231.254-.973.237-2.323-.037-3-.274-.677-.481.119-.461 1.769M53 30.833c0 .642-.9 1.167-2 1.167-1.467 0-2 .667-2 2.5 0 1.375.45 2.5 1 2.5s1 1.125 1 2.5c0 1.556-.567 2.5-1.5 2.5-.825 0-1.506.563-1.514 1.25-.007.688-.268 2.201-.58 3.362-.42 1.562-.032 2.253 1.487 2.65 2.229.583 2.083 1.02 4.083-12.203.536-3.543.761-6.656.499-6.917-.261-.261-.475.05-.475.691m45.856.904C96.792 32.2 95.681 37 97.639 37c2.178 0 1.62 4.12-.639 4.71-2.449.641-2.972 7.29-.573 7.29.784 0 1.588.788 1.785 1.75.197.962.959-2.884 1.692-8.548 1.43-11.039 1.431-11.021-1.048-10.465M117.232 34c0 1.925.206 2.712.457 1.75.252-.962.252-2.538 0-3.5-.251-.962-.457-.175-.457 1.75m-59.074 0c0 1.375.227 1.938.504 1.25.278-.687.278-1.812 0-2.5-.277-.687-.504-.125-.504 1.25m69.921.583c.048 1.165.285 1.402.604.605.289-.722.253-1.585-.079-1.917-.332-.332-.568.258-.525 1.312m-43.411 5.272c-.435 3.495-.538 6.608-.23 6.917.309.309.562-.653.562-2.137 0-3.41 2.772-4.667 4.645-2.106C90.894 44.237 91 44.143 91 41.33c0-2.691-.287-2.998-2.424-2.589-2.053.392-2.477.027-2.77-2.389-.222-1.824-.632-.562-1.138 3.503M111.232 37c0 1.925.206 2.712.457 1.75.252-.962.252-2.538 0-3.5-.251-.962-.457-.175-.457 1.75m10.963 1.5c.02 1.65.244 2.204.498 1.231.254-.973.237-2.323-.037-3-.274-.677-.481.119-.461 1.769m-5.963 2.5c0 1.925.206 2.712.457 1.75.252-.962.252-2.538 0-3.5-.251-.962-.457-.175-.457 1.75m-6 3c0 1.925.206 2.712.457 1.75.252-.962.252-2.538 0-3.5-.251-.962-.457-.175-.457 1.75m16.928-.832c-.088 1.468-.451 3.493-.807 4.5-.496 1.405-.363 1.57.573.709.685-.63 1.039-2.604.807-4.5-.336-2.745-.443-2.878-.573-.709M104.232 47c0 1.925.206 2.712.457 1.75.252-.962.252-2.538 0-3.5-.251-.962-.457-.175-.457 1.75m10.847.583c.048 1.165.285 1.402.604.605.289-.722.253-1.585-.079-1.917-.332-.332-.568.258-.525 1.312M65.75 74.104 50 83.155v17.8c0 13.023.335 18.077 1.25 18.832.688.568 7.973 4.932 16.19 9.7l14.941 8.667 4.059-2.269c2.233-1.248 9.235-5.289 15.56-8.98l11.5-6.711.257-18.847.257-18.847-15.386-8.75c-8.462-4.812-15.778-8.738-16.257-8.723-.479.015-7.959 4.099-16.621 9.077" fill-rule="evenodd"/></svg>